REM DIRINDEX 1\8,1\2\11,1\3\12,1\3\14,1\5\15,1\5\16,1\6\17,1\6\18,1\4\19,1\4\20,1\4\21,1\4\22,1\7\23,1\7\24,1\7\25,1\2\9\26,1\2\9\27,1\2\10\28,1\2\10\29,1\2\10\30,1\2\10\31,1\2\10\32,1\3\13\33,1\3\13\34,1\3\13\35
REM DIRNAME cjc123,folder01,folder02,folder03,folder04,folder05,folder06,folder07,folder08,folder09,folder10,folder11,folder12,folder13,folder14,folder15,folder16,folder17,folder18,folder19,folder20,folder21,folder22,folder23,folder24,folder25,folder26,folder27,folder28,folder29,folder30,folder31,folder32,folder33,folder34
TITLE ""
FILE "88 088_UNIT3_WARM-UP-40.mp3" MP3
  TRACK 01 AUDIO
    TITLE "14:cjc123_7779"
    INDEX 01 00:00:00
  TRACK 02 AUDIO
    TITLE "0:"
    INDEX 01 00:02:71
  TRACK 03 AUDIO
    TITLE "12:cjc123_7780"
    INDEX 01 00:03:51
  TRACK 04 AUDIO
    TITLE "0:"
    INDEX 01 00:04:48
  TRACK 05 AUDIO
    TITLE "12:cjc123_7781"
    INDEX 01 00:05:28
  TRACK 06 AUDIO
    TITLE "0:"
    INDEX 01 00:06:33
  TRACK 07 AUDIO
    TITLE "12:cjc123_7782"
    INDEX 01 00:07:19
  TRACK 08 AUDIO
    TITLE "0:"
    INDEX 01 00:08:26
  TRACK 09 AUDIO
    TITLE "12:cjc123_7783"
    INDEX 01 00:09:02
  TRACK 10 AUDIO
    TITLE "0:"
    INDEX 01 00:10:21
  TRACK 11 AUDIO
    TITLE "12:cjc123_7784"
    INDEX 01 00:10:70
  TRACK 12 AUDIO
    TITLE "0:"
    INDEX 01 00:12:05
  TRACK 13 AUDIO
    TITLE "12:cjc123_7785"
    INDEX 01 00:12:48
  TRACK 14 AUDIO
    TITLE "0:"
    INDEX 01 00:13:55
  TRACK 15 AUDIO
    TITLE "12:cjc123_7786"
    INDEX 01 00:14:49
  TRACK 16 AUDIO
    TITLE "0:"
    INDEX 01 00:15:56
  TRACK 17 AUDIO
    TITLE "12:cjc123_7787"
    INDEX 01 00:16:34
  TRACK 18 AUDIO
    TITLE "0:"
    INDEX 01 00:17:47
  TRACK 19 AUDIO
    TITLE "12:cjc123_7788"
    INDEX 01 00:17:69
  TRACK 20 AUDIO
    TITLE "0:"
    INDEX 01 00:19:24
  TRACK 21 AUDIO
    TITLE "12:cjc123_7789"
    INDEX 01 00:19:67
  TRACK 22 AUDIO
    TITLE "0:"
    INDEX 01 00:21:31
  TRACK 23 AUDIO
    TITLE "12:cjc123_7790"
    INDEX 01 00:22:15
  TRACK 24 AUDIO
    TITLE "0:"
    INDEX 01 00:23:08
  TRACK 25 AUDIO
    TITLE "12:cjc123_7791"
    INDEX 01 00:23:61
  TRACK 26 AUDIO
    TITLE "0:"
    INDEX 01 00:24:65
  TRACK 27 AUDIO
    TITLE "12:cjc123_7792"
    INDEX 01 00:25:45
  TRACK 28 AUDIO
    TITLE "0:"
    INDEX 01 00:26:44
  TRACK 29 AUDIO
    TITLE "12:cjc123_7793"
    INDEX 01 00:27:12
  TRACK 30 AUDIO
    TITLE "0:"
    INDEX 01 00:28:04
  TRACK 31 AUDIO
    TITLE "12:cjc123_7794"
    INDEX 01 00:28:60
  TRACK 32 AUDIO
    TITLE "0:"
    INDEX 01 00:29:74
  TRACK 33 AUDIO
    TITLE "12:cjc123_7795"
    INDEX 01 00:30:48
  TRACK 34 AUDIO
    TITLE "0:"
    INDEX 01 00:32:01
  TRACK 35 AUDIO
    TITLE "12:cjc123_7796"
    INDEX 01 00:32:48
  TRACK 36 AUDIO
    TITLE "0:"
    INDEX 01 00:33:58
  TRACK 37 AUDIO
    TITLE "12:cjc123_7797"
    INDEX 01 00:34:42
  TRACK 38 AUDIO
    TITLE "0:"
    INDEX 01 00:35:64
  TRACK 39 AUDIO
    TITLE "12:cjc123_7798"
    INDEX 01 00:36:40
  TRACK 40 AUDIO
    TITLE "0:"
    INDEX 01 00:37:65
  TRACK 41 AUDIO
    TITLE "12:cjc123_7799"
    INDEX 01 00:38:43
  TRACK 42 AUDIO
    TITLE "0:"
    INDEX 01 00:39:51
  TRACK 43 AUDIO
    TITLE "12:cjc123_7800"
    INDEX 01 00:40:26
  TRACK 44 AUDIO
    TITLE "0:"
    INDEX 01 00:41:38
  TRACK 45 AUDIO
    TITLE "12:cjc123_7801"
    INDEX 01 00:42:18
  TRACK 46 AUDIO
    TITLE "0:"
    INDEX 01 00:43:17
  TRACK 47 AUDIO
    TITLE "12:cjc123_7802"
    INDEX 01 00:43:64
  TRACK 48 AUDIO
    TITLE "0:"
    INDEX 01 00:45:04
  TRACK 49 AUDIO
    TITLE "12:cjc123_7803"
    INDEX 01 00:45:47
  TRACK 50 AUDIO
    TITLE "0:"
    INDEX 01 00:46:68
  TRACK 51 AUDIO
    TITLE "12:cjc123_7804"
    INDEX 01 00:47:36
  TRACK 52 AUDIO
    TITLE "0:"
    INDEX 01 00:48:55
  TRACK 53 AUDIO
    TITLE "12:cjc123_7805"
    INDEX 01 00:49:39
  TRACK 54 AUDIO
    TITLE "0:"
    INDEX 01 00:50:42
  TRACK 55 AUDIO
    TITLE "12:cjc123_7806"
    INDEX 01 00:51:13
  TRACK 56 AUDIO
    TITLE "0:"
    INDEX 01 00:52:32
  TRACK 57 AUDIO
    TITLE "12:cjc123_7807"
    INDEX 01 00:53:06
  TRACK 58 AUDIO
    TITLE "0:"
    INDEX 01 00:53:68
  TRACK 59 AUDIO
    TITLE "12:cjc123_7808"
    INDEX 01 00:54:58
  TRACK 60 AUDIO
    TITLE "0:"
    INDEX 01 00:55:65
  TRACK 61 AUDIO
    TITLE "12:cjc123_7809"
    INDEX 01 00:56:37
  TRACK 62 AUDIO
    TITLE "0:"
    INDEX 01 00:57:54
  TRACK 63 AUDIO
    TITLE "12:cjc123_7810"
    INDEX 01 00:58:26
  TRACK 64 AUDIO
    TITLE "0:"
    INDEX 01 00:59:39
  TRACK 65 AUDIO
    TITLE "12:cjc123_7811"
    INDEX 01 01:00:12
  TRACK 66 AUDIO
    TITLE "0:"
    INDEX 01 01:01:13
  TRACK 67 AUDIO
    TITLE "12:cjc123_7812"
    INDEX 01 01:01:70
  TRACK 68 AUDIO
    TITLE "0:"
    INDEX 01 01:03:33
  TRACK 69 AUDIO
    TITLE "12:cjc123_7813"
    INDEX 01 01:04:07
  TRACK 70 AUDIO
    TITLE "0:"
    INDEX 01 01:05:07
  TRACK 71 AUDIO
    TITLE "12:cjc123_7814"
    INDEX 01 01:05:68
  TRACK 72 AUDIO
    TITLE "0:"
    INDEX 01 01:06:59
  TRACK 73 AUDIO
    TITLE "12:cjc123_7815"
    INDEX 01 01:07:39
  TRACK 74 AUDIO
    TITLE "0:"
    INDEX 01 01:08:50
  TRACK 75 AUDIO
    TITLE "12:cjc123_7816"
    INDEX 01 01:09:28
  TRACK 76 AUDIO
    TITLE "0:"
    INDEX 01 01:10:20
  TRACK 77 AUDIO
    TITLE "12:cjc123_7817"
    INDEX 01 01:10:71
  TRACK 78 AUDIO
    TITLE "0:"
    INDEX 01 01:11:74
  TRACK 79 AUDIO
    TITLE "12:cjc123_7818"
    INDEX 01 01:12:50
  TRACK 80 AUDIO
    TITLE "0:"
    INDEX 01 01:13:67
  TRACK 81 AUDIO
    TITLE "12:cjc123_7819"
    INDEX 01 01:14:47
  TRACK 82 AUDIO
    TITLE "0:"
    INDEX 01 01:15:56
